<?xml version="1.0" encoding="utf-8"?>
<svg version="1.1" xmlns:xlink="http://www.w3.org/1999/xlink" width="40px" height="38px" xmlns="http://www.w3.org/2000/svg">
  <g transform="matrix(1 0 0 1 -31 -257 )">
    <path d="M 22.5 31.8151041666667  C 22.9513888888889 31.8151041666667  23.3420138888889 31.6584201388889  23.671875 31.3450520833333  L 26.328125 28.8216145833333  C 26.6579861111111 28.5082465277778  26.8229166666667 28.1371527777778  26.8229166666667 27.7083333333333  C 26.8229166666667 27.2795138888889  26.6579861111111 26.9084201388889  26.328125 26.5950520833333  L 18.3333333333333 19  L 26.328125 11.4049479166667  C 26.6579861111111 11.0915798611111  26.8229166666667 10.7204861111111  26.8229166666667 10.2916666666667  C 26.8229166666667 9.86284722222222  26.6579861111111 9.49175347222222  26.328125 9.17838541666667  L 23.671875 6.65494791666667  C 23.3420138888889 6.34157986111111  22.9513888888889 6.18489583333333  22.5 6.18489583333333  C 22.0486111111111 6.18489583333333  21.6579861111111 6.34157986111111  21.328125 6.65494791666667  L 9.50520833333333 17.88671875  C 9.17534722222222 18.2000868055556  9.01041666666667 18.5711805555556  9.01041666666667 19  C 9.01041666666667 19.4288194444444  9.17534722222222 19.7999131944444  9.50520833333333 20.11328125  L 21.328125 31.3450520833333  C 21.6579861111111 31.6584201388889  22.0486111111111 31.8151041666667  22.5 31.8151041666667  Z M 37.3177083333333 9.462890625  C 39.1059027777778 12.3739149305556  40 15.5529513888889  40 19  C 40 22.4470486111111  39.1059027777778 25.6260850694444  37.3177083333333 28.537109375  C 35.5295138888889 31.4481336805556  33.1032986111111 33.7530381944444  30.0390625 35.4518229166667  C 26.9748263888889 37.1506076388889  23.6284722222222 38  20 38  C 16.3715277777778 38  13.0251736111111 37.1506076388889  9.9609375 35.4518229166667  C 6.89670138888889 33.7530381944444  4.47048611111111 31.4481336805556  2.68229166666667 28.537109375  C 0.894097222222222 25.6260850694444  0 22.4470486111111  0 19  C 0 15.5529513888889  0.894097222222222 12.3739149305556  2.68229166666667 9.462890625  C 4.47048611111111 6.55186631944444  6.89670138888889 4.24696180555555  9.9609375 2.54817708333333  C 13.0251736111111 0.849392361111108  16.3715277777778 0  20 0  C 23.6284722222222 0  26.9748263888889 0.849392361111108  30.0390625 2.54817708333333  C 33.1032986111111 4.24696180555555  35.5295138888889 6.55186631944444  37.3177083333333 9.462890625  Z " fill-rule="nonzero" fill="#caf982" stroke="none" transform="matrix(1 0 0 1 31 257 )" />
  </g>
</svg>