<?xml version="1.0" encoding="utf-8"?>
<svg version="1.1" xmlns:xlink="http://www.w3.org/1999/xlink" width="38px" height="38px" xmlns="http://www.w3.org/2000/svg">
  <g transform="matrix(1 0 0 1 -780 -276 )">
    <path d="M 16.625 31.8151041666667  C 17.0538194444444 31.8151041666667  17.4249131944444 31.6584201388889  17.73828125 31.3450520833333  L 28.9700520833333 20.11328125  C 29.2834201388889 19.7999131944444  29.4401041666667 19.4288194444444  29.4401041666667 19  C 29.4401041666667 18.5711805555556  29.2834201388889 18.2000868055556  28.9700520833333 17.88671875  L 17.73828125 6.65494791666667  C 17.4249131944444 6.34157986111111  17.0538194444444 6.18489583333333  16.625 6.18489583333333  C 16.1961805555556 6.18489583333333  15.8250868055556 6.34157986111111  15.51171875 6.65494791666667  L 12.98828125 9.17838541666667  C 12.6749131944444 9.49175347222222  12.5182291666667 9.86284722222222  12.5182291666667 10.2916666666667  C 12.5182291666667 10.7204861111111  12.6749131944444 11.0915798611111  12.98828125 11.4049479166667  L 20.5833333333333 19  L 12.98828125 26.5950520833333  C 12.6749131944444 26.9084201388889  12.5182291666667 27.2795138888889  12.5182291666667 27.7083333333333  C 12.5182291666667 28.1371527777778  12.6749131944444 28.5082465277778  12.98828125 28.8216145833333  L 15.51171875 31.3450520833333  C 15.8250868055556 31.6584201388889  16.1961805555556 31.8151041666667  16.625 31.8151041666667  Z M 35.4518229166667 9.462890625  C 37.1506076388889 12.3739149305556  38 15.5529513888889  38 19  C 38 22.4470486111111  37.1506076388889 25.6260850694444  35.4518229166667 28.537109375  C 33.7530381944445 31.4481336805556  31.4481336805556 33.7530381944444  28.537109375 35.4518229166667  C 25.6260850694445 37.1506076388889  22.4470486111111 38  19 38  C 15.5529513888889 38  12.3739149305556 37.1506076388889  9.462890625 35.4518229166667  C 6.55186631944444 33.7530381944444  4.24696180555556 31.4481336805556  2.54817708333333 28.537109375  C 0.849392361111111 25.6260850694444  0 22.4470486111111  0 19  C 0 15.5529513888889  0.849392361111111 12.3739149305556  2.54817708333333 9.462890625  C 4.24696180555556 6.55186631944444  6.55186631944444 4.24696180555555  9.462890625 2.54817708333333  C 12.3739149305556 0.849392361111108  15.5529513888889 0  19 0  C 22.4470486111111 0  25.6260850694445 0.849392361111108  28.537109375 2.54817708333333  C 31.4481336805556 4.24696180555555  33.7530381944445 6.55186631944444  35.4518229166667 9.462890625  Z " fill-rule="nonzero" fill="#caf982" stroke="none" transform="matrix(1 0 0 1 780 276 )" />
  </g>
</svg>